<?xml version="1.0" encoding="utf-8"?>
<!-- Generator: Adobe Illustrator 21.0.2, SVG Export Plug-In . SVG Version: 6.00 Build 0)  -->
<svg version="1.1" xmlns="http://www.w3.org/2000/svg" xmlns:xlink="http://www.w3.org/1999/xlink" x="0px" y="0px"
	 viewBox="0 0 1280 825" style="enable-background:new 0 0 1280 825;" xml:space="preserve">
<style type="text/css">
	.st0{fill:none;}
	.st1{font-family:'Futura-Medium';}
	.st2{font-size:48px;}
	.st3{opacity:0.1;fill:#FFFFFF;stroke:#000000;stroke-width:3;stroke-miterlimit:10;}
	.st4{font-family:'Calibri';}
	.st5{font-size:11px;}
	.st6{letter-spacing:12;}
	.st7{letter-spacing:3;}
	.st8{letter-spacing:6;}
	.st9{fill:#ED1C24;}
	.st10{letter-spacing:1;}
	.st11{letter-spacing:2;}
	.st12{letter-spacing:4;}
	.st13{letter-spacing:7;}
	.st14{font-size:18px;}
	.st15{letter-spacing:5;}
	.st16{fill:#BFBFBF;}
	.st17{fill:#202020;}
	.st18{fill:#9F9F9F;}
	.st19{fill:#404040;}
	.st20{fill:#808080;}
	.st21{fill:#DFDFDF;}
	.st22{fill:#606060;}
	.st23{fill:none;stroke:url(#SVGID_1_);stroke-width:3;stroke-miterlimit:10;}
	.st24{font-family:'Futura-Bold';}
</style>
<g id="Layer_1">
	<rect x="70.4" y="78.6" class="st0" width="983.6" height="73.4"/>
	<text transform="matrix(1 0 0 1 70.3979 118.2354)" class="st1 st2">History of Internet Development &amp;Censorhsip</text>
</g>
<g id="hidden">
	<polyline class="st3" points="1184,431.5 1108.7,431.5 1108.7,361 1035.4,361 1035.4,431.5 885.6,431.5 885.6,361 738,361 
		738,431.5 589.5,431.5 589.5,361 441.9,361 441.9,431.5 366.6,431.5 366.6,361 293.4,361 293.4,431.5 219.1,431.5 219.1,361 
		143.8,361 143.8,431.5 69.5,431.5 	"/>
</g>
<g id="time_legend">
	<rect x="258.9" y="452.1" class="st0" width="164.1" height="44.9"/>
	<text transform="matrix(1 0 0 1 258.9082 459.5225)"><tspan x="0" y="0" class="st4 st5">1987 | First e-mail sent from China </tspan><tspan x="0" y="12" class="st4 st5">“Across</tspan><tspan x="33.9" y="12" class="st4 st5"> </tspan><tspan x="36.1" y="12" class="st4 st5">the</tspan><tspan x="51" y="12" class="st4 st5"> </tspan><tspan x="53.2" y="12" class="st4 st5">Great</tspan><tspan x="78.4" y="12" class="st4 st5"> </tspan><tspan x="80.6" y="12" class="st4 st5">Wall,</tspan><tspan x="103.4" y="12" class="st4 st5"> </tspan><tspan x="105.6" y="12" class="st4 st5">we</tspan><tspan x="119" y="12" class="st4 st5"> </tspan><tspan x="121.2" y="12" class="st4 st5">can</tspan><tspan x="136.9" y="12" class="st4 st5"> </tspan><tspan x="139.1" y="12" class="st4 st5">reach </tspan><tspan x="0" y="24" class="st4 st5">every corner in the world.”</tspan></text>
	<rect x="391.9" y="510.1" class="st0" width="165.1" height="49.9"/>
	<text transform="matrix(1 0 0 1 391.9082 517.5225)"><tspan x="0" y="0" class="st4 st5">1995 | Internet entered China</tspan><tspan x="0" y="12" class="st4 st5">China</tspan><tspan x="25.2" y="12" class="st4 st5"> </tspan><tspan x="27.6" y="12" class="st4 st5">Telecom</tspan><tspan x="65.7" y="12" class="st4 st5"> </tspan><tspan x="68" y="12" class="st4 st5">started</tspan><tspan x="100.1" y="12" class="st4 st5"> </tspan><tspan x="102.4" y="12" class="st4 st5">to</tspan><tspan x="111.9" y="12" class="st4 st5"> </tspan><tspan x="114.3" y="12" class="st4 st5">prepare</tspan><tspan x="149.7" y="12" class="st4 st5"> </tspan><tspan x="152.1" y="12" class="st4 st5">for </tspan><tspan x="0" y="24" class="st4 st5">building</tspan><tspan x="35.9" y="24" class="st4 st5 st6"> </tspan><tspan x="50.5" y="24" class="st4 st5">a</tspan><tspan x="55.8" y="24" class="st4 st5 st6"> </tspan><tspan x="70.4" y="24" class="st4 st5">national</tspan><tspan x="106.9" y="24" class="st4 st5 st6"> </tspan><tspan x="121.6" y="24" class="st4 st5">backbone </tspan><tspan x="0" y="36" class="st4 st5">network for Chinanet.</tspan></text>
	<rect x="390.9" y="566.1" class="st0" width="167.1" height="72.9"/>
	<text transform="matrix(1 0 0 1 390.9082 573.5225)"><tspan x="0" y="0" class="st4 st5">1996</tspan><tspan x="22.3" y="0" class="st4 st5"> </tspan><tspan x="25.2" y="0" class="st4 st5">|</tspan><tspan x="30.3" y="0" class="st4 st5"> </tspan><tspan x="33.2" y="0" class="st4 st5">China</tspan><tspan x="58.5" y="0" class="st4 st5"> </tspan><tspan x="61.4" y="0" class="st4 st5">Golden</tspan><tspan x="93.7" y="0" class="st4 st5"> </tspan><tspan x="96.6" y="0" class="st4 st5">Bridge</tspan><tspan x="125.4" y="0" class="st4 st5"> </tspan><tspan x="128.3" y="0" class="st4 st5">Network </tspan><tspan x="0" y="12" class="st4 st5">(ChinaGBN)</tspan><tspan x="0" y="24" class="st4 st5">The</tspan><tspan x="16.6" y="24" class="st4 st5 st7"> </tspan><tspan x="23" y="24" class="st4 st5">China</tspan><tspan x="48.2" y="24" class="st4 st5 st7"> </tspan><tspan x="54.5" y="24" class="st4 st5">Golden</tspan><tspan x="86.8" y="24" class="st4 st5 st7"> </tspan><tspan x="93.2" y="24" class="st4 st5">Bridge</tspan><tspan x="122" y="24" class="st4 st5 st7"> </tspan><tspan x="128.3" y="24" class="st4 st5">Network </tspan><tspan x="0" y="36" class="st4 st5">(ChinaGBN)</tspan><tspan x="51.9" y="36" class="st4 st5"> </tspan><tspan x="54.2" y="36" class="st4 st5">opened</tspan><tspan x="88.2" y="36" class="st4 st5"> </tspan><tspan x="90.5" y="36" class="st4 st5">a</tspan><tspan x="95.8" y="36" class="st4 st5"> </tspan><tspan x="98" y="36" class="st4 st5">256K</tspan><tspan x="120.4" y="36" class="st4 st5"> </tspan><tspan x="122.7" y="36" class="st4 st5">dedicated </tspan><tspan x="0" y="48" class="st4 st5">circuit</tspan><tspan x="27.7" y="48" class="st4 st5 st8"> </tspan><tspan x="37.1" y="48" class="st4 st5">connected</tspan><tspan x="84.1" y="48" class="st4 st5 st8"> </tspan><tspan x="93.5" y="48" class="st4 st5">to</tspan><tspan x="103" y="48" class="st4 st5 st8"> </tspan><tspan x="112.4" y="48" class="st4 st5">the</tspan><tspan x="127.4" y="48" class="st4 st5 st8"> </tspan><tspan x="136.8" y="48" class="st4 st5">United </tspan><tspan x="0" y="60" class="st4 st5">States. </tspan></text>
	<rect x="391.9" y="648.1" class="st0" width="197.1" height="98.9"/>
	<text transform="matrix(1 0 0 1 391.9082 655.5225)"><tspan x="0" y="0" class="st9 st4 st5">1998 | Initiation of the Golden Shield Project</tspan><tspan x="0" y="12" class="st9 st4 st5">The</tspan><tspan x="16.6" y="12" class="st9 st4 st5 st10"> </tspan><tspan x="21" y="12" class="st9 st4 st5">Ministry</tspan><tspan x="58" y="12" class="st9 st4 st5 st10"> </tspan><tspan x="62.4" y="12" class="st9 st4 st5">of</tspan><tspan x="71.6" y="12" class="st9 st4 st5 st10"> </tspan><tspan x="76" y="12" class="st9 st4 st5">Public</tspan><tspan x="102.9" y="12" class="st9 st4 st5 st10"> </tspan><tspan x="107.3" y="12" class="st9 st4 st5">Security</tspan><tspan x="143.3" y="12" class="st9 st4 st5 st10"> </tspan><tspan x="147.7" y="12" class="st9 st4 st5">took</tspan><tspan x="168" y="12" class="st9 st4 st5 st10"> </tspan><tspan x="172.3" y="12" class="st9 st4 st5">initial </tspan><tspan x="0" y="24" class="st9 st4 st5">steps</tspan><tspan x="23.5" y="24" class="st9 st4 st5 st11"> </tspan><tspan x="28.3" y="24" class="st9 st4 st5">to</tspan><tspan x="37.8" y="24" class="st9 st4 st5 st11"> </tspan><tspan x="42.5" y="24" class="st9 st4 st5">control</tspan><tspan x="74.6" y="24" class="st9 st4 st5 st11"> </tspan><tspan x="79.4" y="24" class="st9 st4 st5">Internet</tspan><tspan x="115.8" y="24" class="st9 st4 st5 st11"> </tspan><tspan x="120.6" y="24" class="st9 st4 st5">use</tspan><tspan x="136.1" y="24" class="st9 st4 st5 st11"> </tspan><tspan x="140.9" y="24" class="st9 st4 st5">in</tspan><tspan x="149.2" y="24" class="st9 st4 st5 st11"> </tspan><tspan x="154" y="24" class="st9 st4 st5">1997.</tspan><tspan x="179" y="24" class="st9 st4 st5 st11">  </tspan><tspan x="188.5" y="24" class="st9 st4 st5">In </tspan><tspan x="0" y="36" class="st9 st4 st5">1998,</tspan><tspan x="25" y="36" class="st9 st4 st5"> </tspan><tspan x="27.7" y="36" class="st9 st4 st5">the</tspan><tspan x="42.6" y="36" class="st9 st4 st5"> </tspan><tspan x="45.3" y="36" class="st9 st4 st5">China</tspan><tspan x="70.5" y="36" class="st9 st4 st5"> </tspan><tspan x="73.1" y="36" class="st9 st4 st5">Democracy</tspan><tspan x="123.3" y="36" class="st9 st4 st5"> </tspan><tspan x="126" y="36" class="st9 st4 st5">Party</tspan><tspan x="149.4" y="36" class="st9 st4 st5"> </tspan><tspan x="152" y="36" class="st9 st4 st5">(CDP)</tspan><tspan x="177" y="36" class="st9 st4 st5"> </tspan><tspan x="179.7" y="36" class="st9 st4 st5">was </tspan><tspan x="0" y="48" class="st9 st4 st5">banned</tspan><tspan x="33.9" y="48" class="st9 st4 st5 st10"> </tspan><tspan x="38" y="48" class="st9 st4 st5">by</tspan><tspan x="48.8" y="48" class="st9 st4 st5 st10"> </tspan><tspan x="53" y="48" class="st9 st4 st5">governmen.The</tspan><tspan x="123.5" y="48" class="st9 st4 st5 st10"> </tspan><tspan x="127.6" y="48" class="st9 st4 st5">same</tspan><tspan x="151.5" y="48" class="st9 st4 st5 st10"> </tspan><tspan x="155.7" y="48" class="st9 st4 st5">year,</tspan><tspan x="178" y="48" class="st9 st4 st5 st10"> </tspan><tspan x="182.2" y="48" class="st9 st4 st5">the </tspan><tspan x="0" y="60" class="st9 st4 st5">Golden Shield project was started.</tspan></text>
	<rect x="603.9" y="445.1" class="st0" width="167.1" height="58.9"/>
	<text transform="matrix(1 0 0 1 603.9082 452.5225)"><tspan x="0" y="0" class="st9 st4 st5">2006</tspan><tspan x="22.3" y="0" class="st9 st4 st5"> </tspan><tspan x="25" y="0" class="st9 st4 st5">|</tspan><tspan x="30.1" y="0" class="st9 st4 st5"> </tspan><tspan x="32.8" y="0" class="st9 st4 st5">Golden</tspan><tspan x="65.1" y="0" class="st9 st4 st5"> </tspan><tspan x="67.8" y="0" class="st9 st4 st5">Shield</tspan><tspan x="95" y="0" class="st9 st4 st5"> </tspan><tspan x="97.7" y="0" class="st9 st4 st5">Project</tspan><tspan x="129.5" y="0" class="st9 st4 st5"> </tspan><tspan x="132.2" y="0" class="st9 st4 st5">phase</tspan><tspan x="158.8" y="0" class="st9 st4 st5"> </tspan><tspan x="161.5" y="0" class="st9 st4 st5">1 </tspan><tspan x="0" y="12" class="st9 st4 st5">was completed</tspan><tspan x="0" y="24" class="st9 st4 st5">The</tspan><tspan x="16.6" y="24" class="st9 st4 st5 st11"> </tspan><tspan x="21.8" y="24" class="st9 st4 st5">first</tspan><tspan x="39.5" y="24" class="st9 st4 st5 st11"> </tspan><tspan x="44.7" y="24" class="st9 st4 st5">part</tspan><tspan x="63.3" y="24" class="st9 st4 st5 st11"> </tspan><tspan x="68.5" y="24" class="st9 st4 st5">of</tspan><tspan x="77.6" y="24" class="st9 st4 st5 st11"> </tspan><tspan x="82.8" y="24" class="st9 st4 st5">the</tspan><tspan x="97.8" y="24" class="st9 st4 st5 st11"> </tspan><tspan x="103" y="24" class="st9 st4 st5">project</tspan><tspan x="134.8" y="24" class="st9 st4 st5 st11"> </tspan><tspan x="140.1" y="24" class="st9 st4 st5">lasted </tspan><tspan x="0" y="36" class="st9 st4 st5">eight</tspan><tspan x="22.6" y="36" class="st9 st4 st5 st7"> </tspan><tspan x="28.7" y="36" class="st9 st4 st5">years</tspan><tspan x="52.5" y="36" class="st9 st4 st5 st7"> </tspan><tspan x="58.5" y="36" class="st9 st4 st5">and</tspan><tspan x="75.4" y="36" class="st9 st4 st5 st7"> </tspan><tspan x="81.4" y="36" class="st9 st4 st5">was</tspan><tspan x="98.8" y="36" class="st9 st4 st5 st7"> </tspan><tspan x="104.8" y="36" class="st9 st4 st5">completed</tspan><tspan x="152.8" y="36" class="st9 st4 st5 st7"> </tspan><tspan x="158.8" y="36" class="st9 st4 st5">in </tspan><tspan x="0" y="48" class="st9 st4 st5">2006.</tspan></text>
	<rect x="656.9" y="505.1" class="st0" width="165.1" height="58.9"/>
	<text transform="matrix(1 0 0 1 656.9082 512.5225)"><tspan x="0" y="0" class="st9 st4 st5">2008</tspan><tspan x="22.3" y="0" class="st9 st4 st5"> </tspan><tspan x="24.7" y="0" class="st9 st4 st5">|</tspan><tspan x="29.8" y="0" class="st9 st4 st5"> </tspan><tspan x="32.2" y="0" class="st9 st4 st5">Golden</tspan><tspan x="64.4" y="0" class="st9 st4 st5"> </tspan><tspan x="66.8" y="0" class="st9 st4 st5">Shield</tspan><tspan x="94" y="0" class="st9 st4 st5"> </tspan><tspan x="96.4" y="0" class="st9 st4 st5">Project</tspan><tspan x="128.1" y="0" class="st9 st4 st5"> </tspan><tspan x="130.5" y="0" class="st9 st4 st5">phase</tspan><tspan x="157.1" y="0" class="st9 st4 st5"> </tspan><tspan x="159.5" y="0" class="st9 st4 st5">2 </tspan><tspan x="0" y="12" class="st9 st4 st5">was completed</tspan><tspan x="0" y="24" class="st9 st4 st5">The</tspan><tspan x="16.6" y="24" class="st9 st4 st5 st10"> </tspan><tspan x="20.5" y="24" class="st9 st4 st5">second</tspan><tspan x="52.3" y="24" class="st9 st4 st5 st10"> </tspan><tspan x="56.1" y="24" class="st9 st4 st5">part</tspan><tspan x="74.7" y="24" class="st9 st4 st5 st10"> </tspan><tspan x="78.6" y="24" class="st9 st4 st5">began</tspan><tspan x="106.1" y="24" class="st9 st4 st5 st10"> </tspan><tspan x="109.9" y="24" class="st9 st4 st5">in</tspan><tspan x="118.2" y="24" class="st9 st4 st5 st10"> </tspan><tspan x="122.1" y="24" class="st9 st4 st5">2006</tspan><tspan x="144.4" y="24" class="st9 st4 st5 st10"> </tspan><tspan x="148.3" y="24" class="st9 st4 st5">and </tspan><tspan x="0" y="36" class="st9 st4 st5">ended in 2008</tspan></text>
	<rect x="684.9" y="565.1" class="st0" width="164.1" height="29.9"/>
	<text transform="matrix(1 0 0 1 684.9082 572.5225)"><tspan x="0" y="0" class="st9 st4 st5">2009</tspan><tspan x="22.3" y="0" class="st9 st4 st5 st8"> </tspan><tspan x="31.3" y="0" class="st9 st4 st5">|</tspan><tspan x="36.4" y="0" class="st9 st4 st5 st8"> </tspan><tspan x="45.4" y="0" class="st9 st4 st5">China</tspan><tspan x="70.6" y="0" class="st9 st4 st5 st8"> </tspan><tspan x="79.7" y="0" class="st9 st4 st5">blocked</tspan><tspan x="114.7" y="0" class="st9 st4 st5 st8"> </tspan><tspan x="123.7" y="0" class="st9 st4 st5">Youtube, </tspan><tspan x="0" y="12" class="st9 st4 st5">Facebook and Twitter</tspan></text>
	<rect x="722.4" y="602.6" class="st0" width="166.6" height="29.9"/>
	<text transform="matrix(1 0 0 1 722.4082 610.0225)"><tspan x="0" y="0" class="st9 st4 st5">2010</tspan><tspan x="22.3" y="0" class="st9 st4 st5 st11"> </tspan><tspan x="27.2" y="0" class="st9 st4 st5">|</tspan><tspan x="32.2" y="0" class="st9 st4 st5 st11"> </tspan><tspan x="37.1" y="0" class="st9 st4 st5">Google</tspan><tspan x="68.8" y="0" class="st9 st4 st5 st11"> </tspan><tspan x="73.7" y="0" class="st9 st4 st5">quitted</tspan><tspan x="106" y="0" class="st9 st4 st5 st11"> </tspan><tspan x="110.9" y="0" class="st9 st4 st5">mainland</tspan><tspan x="152.6" y="0" class="st9 st4 st5 st11"> </tspan><tspan x="157.4" y="0" class="st9 st4 st5">of </tspan><tspan x="0" y="12" class="st9 st4 st5">China</tspan></text>
	<rect x="822.4" y="632.6" class="st0" width="167.6" height="25.4"/>
	<text transform="matrix(1 0 0 1 822.4082 640.0225)"><tspan x="0" y="0" class="st9 st4 st5">2014</tspan><tspan x="22.3" y="0" class="st9 st4 st5 st12"> </tspan><tspan x="29.2" y="0" class="st9 st4 st5">|</tspan><tspan x="34.3" y="0" class="st9 st4 st5 st12"> </tspan><tspan x="41.2" y="0" class="st9 st4 st5">Instagram</tspan><tspan x="86.1" y="0" class="st9 st4 st5 st12"> </tspan><tspan x="93" y="0" class="st9 st4 st5">was</tspan><tspan x="110.4" y="0" class="st9 st4 st5 st12"> </tspan><tspan x="117.4" y="0" class="st9 st4 st5">blocked</tspan><tspan x="152.4" y="0" class="st9 st4 st5 st12"> </tspan><tspan x="159.3" y="0" class="st9 st4 st5">in </tspan><tspan x="0" y="12" class="st9 st4 st5">mainland of China</tspan></text>
	<rect x="910.4" y="444.6" class="st0" width="173.6" height="94.4"/>
	<text transform="matrix(1 0 0 1 910.4082 452.0225)"><tspan x="0" y="0" class="st9 st4 st5">2016</tspan><tspan x="22.3" y="0" class="st9 st4 st5 st10"> </tspan><tspan x="26" y="0" class="st9 st4 st5">|</tspan><tspan x="31.1" y="0" class="st9 st4 st5 st10"> </tspan><tspan x="34.8" y="0" class="st9 st4 st5">Daily</tspan><tspan x="56.9" y="0" class="st9 st4 st5 st10"> </tspan><tspan x="60.6" y="0" class="st9 st4 st5">Report:</tspan><tspan x="94.1" y="0" class="st9 st4 st5 st10"> </tspan><tspan x="97.8" y="0" class="st9 st4 st5">Facebook</tspan><tspan x="140.6" y="0" class="st9 st4 st5 st10"> </tspan><tspan x="144.3" y="0" class="st9 st4 st5">Courts </tspan><tspan x="0" y="12" class="st9 st4 st5">China With Censoring Software</tspan><tspan x="0" y="24" class="st9 st4 st5">China</tspan><tspan x="25.2" y="24" class="st9 st4 st5 st13"> </tspan><tspan x="35.3" y="24" class="st9 st4 st5">is</tspan><tspan x="42.1" y="24" class="st9 st4 st5 st13"> </tspan><tspan x="52.2" y="24" class="st9 st4 st5">a</tspan><tspan x="57.5" y="24" class="st9 st4 st5 st13"> </tspan><tspan x="67.6" y="24" class="st9 st4 st5">tempting</tspan><tspan x="108.4" y="24" class="st9 st4 st5 st13"> </tspan><tspan x="118.5" y="24" class="st9 st4 st5">market</tspan><tspan x="150.5" y="24" class="st9 st4 st5 st13"> </tspan><tspan x="160.6" y="24" class="st9 st4 st5">for </tspan><tspan x="0" y="36" class="st9 st4 st5">Facebook,</tspan><tspan x="45.6" y="36" class="st9 st4 st5 st12"> </tspan><tspan x="53" y="36" class="st9 st4 st5">which</tspan><tspan x="79.6" y="36" class="st9 st4 st5 st12"> </tspan><tspan x="87" y="36" class="st9 st4 st5">has</tspan><tspan x="102.4" y="36" class="st9 st4 st5 st12"> </tspan><tspan x="109.8" y="36" class="st9 st4 st5">been</tspan><tspan x="132.3" y="36" class="st9 st4 st5 st12"> </tspan><tspan x="139.7" y="36" class="st9 st4 st5">banned </tspan><tspan x="0" y="48" class="st9 st4 st5">there</tspan><tspan x="24.2" y="48" class="st9 st4 st5 st11"> </tspan><tspan x="29.4" y="48" class="st9 st4 st5">since</tspan><tspan x="52.2" y="48" class="st9 st4 st5 st11"> </tspan><tspan x="57.3" y="48" class="st9 st4 st5">2009.</tspan><tspan x="82.4" y="48" class="st9 st4 st5 st11"> </tspan><tspan x="87.6" y="48" class="st9 st4 st5">But</tspan><tspan x="103.1" y="48" class="st9 st4 st5 st11"> </tspan><tspan x="108.2" y="48" class="st9 st4 st5">to</tspan><tspan x="117.7" y="48" class="st9 st4 st5 st11"> </tspan><tspan x="122.9" y="48" class="st9 st4 st5">get</tspan><tspan x="137.2" y="48" class="st9 st4 st5 st11"> </tspan><tspan x="142.4" y="48" class="st9 st4 st5">in,</tspan><tspan x="153.5" y="48" class="st9 st4 st5 st11"> </tspan><tspan x="158.7" y="48" class="st9 st4 st5">the </tspan><tspan x="0" y="60" class="st9 st4 st5">social</tspan><tspan x="25.1" y="60" class="st9 st4 st5 st6"> </tspan><tspan x="40.3" y="60" class="st9 st4 st5">network</tspan><tspan x="77.8" y="60" class="st9 st4 st5 st6"> </tspan><tspan x="93" y="60" class="st9 st4 st5">may</tspan><tspan x="112.1" y="60" class="st9 st4 st5 st6"> </tspan><tspan x="127.3" y="60" class="st9 st4 st5">have</tspan><tspan x="148.8" y="60" class="st9 st4 st5 st6"> </tspan><tspan x="164.1" y="60" class="st9 st4 st5">to </tspan><tspan x="0" y="72" class="st9 st4 st5">compromise on its mission.</tspan></text>
	<text transform="matrix(1 0 0 1 69.9697 192.7544)"><tspan x="0" y="0" class="st1 st14">Internet </tspan><tspan x="0" y="22" class="st1 st14">Development</tspan></text>
	<text transform="matrix(1 0 0 1 207.9697 192.7544)"><tspan x="0" y="0" class="st9 st1 st14">Censorship</tspan><tspan x="0" y="22" class="st9 st1 st14">Development</tspan></text>
	<rect x="497.6" y="250.9" class="st0" width="166.4" height="92.1"/>
	<text transform="matrix(1 0 0 1 497.6006 258.3389)"><tspan x="0" y="0" class="st4 st5">2001|</tspan><tspan x="27.4" y="0" class="st4 st5"> </tspan><tspan x="30.7" y="0" class="st4 st5">Hackers</tspan><tspan x="66.1" y="0" class="st4 st5"> </tspan><tspan x="69.4" y="0" class="st4 st5">and</tspan><tspan x="86.2" y="0" class="st4 st5"> </tspan><tspan x="89.5" y="0" class="st4 st5">the</tspan><tspan x="104.4" y="0" class="st4 st5"> </tspan><tspan x="107.7" y="0" class="st4 st5">Internet</tspan><tspan x="144.2" y="0" class="st4 st5"> </tspan><tspan x="147.5" y="0" class="st4 st5">War </tspan><tspan x="0" y="12" class="st4 st5">--26.5 million internet users</tspan><tspan x="0" y="24" class="st4 st5">US</tspan><tspan x="12.1" y="24" class="st4 st5"> </tspan><tspan x="14.8" y="24" class="st4 st5">and</tspan><tspan x="31.6" y="24" class="st4 st5"> </tspan><tspan x="34.4" y="24" class="st4 st5">Chinese</tspan><tspan x="69.6" y="24" class="st4 st5"> </tspan><tspan x="72.3" y="24" class="st4 st5">hackers</tspan><tspan x="106.6" y="24" class="st4 st5"> </tspan><tspan x="109.3" y="24" class="st4 st5">engage</tspan><tspan x="141.6" y="24" class="st4 st5"> </tspan><tspan x="144.3" y="24" class="st4 st5">in</tspan><tspan x="152.6" y="24" class="st4 st5"> </tspan><tspan x="155.3" y="24" class="st4 st5">an </tspan><tspan x="0" y="36" class="st4 st5">internet</tspan><tspan x="36.2" y="36" class="st4 st5 st11"> </tspan><tspan x="41" y="36" class="st4 st5">war</tspan><tspan x="58" y="36" class="st4 st5 st11"> </tspan><tspan x="62.8" y="36" class="st4 st5">as</tspan><tspan x="72.4" y="36" class="st4 st5 st11"> </tspan><tspan x="77.1" y="36" class="st4 st5">the</tspan><tspan x="92.1" y="36" class="st4 st5 st11"> </tspan><tspan x="96.9" y="36" class="st4 st5">diplomatic</tspan><tspan x="144.1" y="36" class="st4 st5 st11"> </tspan><tspan x="148.9" y="36" class="st4 st5">row </tspan><tspan x="0" y="48" class="st4 st5">about</tspan><tspan x="26.3" y="48" class="st4 st5 st15"> </tspan><tspan x="33.9" y="48" class="st4 st5">the</tspan><tspan x="48.9" y="48" class="st4 st5 st15"> </tspan><tspan x="56.5" y="48" class="st4 st5">crashed</tspan><tspan x="91.6" y="48" class="st4 st5 st15"> </tspan><tspan x="99.2" y="48" class="st4 st5">US</tspan><tspan x="111.3" y="48" class="st4 st5 st15"> </tspan><tspan x="118.9" y="48" class="st4 st5">spy</tspan><tspan x="134" y="48" class="st4 st5 st15"> </tspan><tspan x="141.6" y="48" class="st4 st5">plane </tspan><tspan x="0" y="60" class="st4 st5">rumbles on. 56% growth rate</tspan></text>
</g>
<g id="Layer_5">
	<g>
		<g>
			<g>
				<rect x="1113.2" y="396" class="st16" width="66.8" height="2"/>
			</g>
		</g>
		<g>
			<g>
				<rect x="1039" y="396" class="st17" width="66.8" height="2"/>
			</g>
		</g>
		<g>
			<g>
				<rect x="964.7" y="396" class="st18" width="66.8" height="2"/>
			</g>
		</g>
		<g>
			<g>
				<rect x="890.5" y="396" class="st19" width="66.8" height="2"/>
			</g>
		</g>
		<g>
			<g>
				<rect x="816.3" y="396" class="st20" width="66.8" height="2"/>
			</g>
		</g>
		<g>
			<g>
				<rect x="742.1" y="396" class="st21" width="66.8" height="2"/>
			</g>
		</g>
		<g>
			<g>
				<rect x="667.8" y="396" width="66.8" height="2"/>
			</g>
		</g>
		<g>
			<g>
				<rect x="593.6" y="396" class="st22" width="66.8" height="2"/>
			</g>
		</g>
		<g>
			<g>
				<rect x="519.4" y="396" class="st16" width="66.8" height="2"/>
			</g>
		</g>
		<g>
			<g>
				<rect x="445.1" y="396" class="st17" width="66.8" height="2"/>
			</g>
		</g>
		<g>
			<g>
				<rect x="370.9" y="396" class="st18" width="66.8" height="2"/>
			</g>
		</g>
		<g>
			<g>
				<rect x="296.7" y="396" class="st19" width="66.8" height="2"/>
			</g>
		</g>
		<g>
			<g>
				<rect x="222.5" y="396" class="st20" width="66.8" height="2"/>
			</g>
		</g>
		<g>
			<g>
				<rect x="148.2" y="396" class="st21" width="66.8" height="2"/>
			</g>
		</g>
		<g>
			<g>
				<rect x="74" y="396" width="66.8" height="2"/>
			</g>
		</g>
	</g>
	<linearGradient id="SVGID_1_" gradientUnits="userSpaceOnUse" x1="69.5" y1="396.25" x2="1184" y2="396.25">
		<stop  offset="0" style="stop-color:#FFFFFF"/>
		<stop  offset="1" style="stop-color:#000000"/>
	</linearGradient>
	<polyline class="st23" points="1184,431.5 1108.7,431.5 1108.7,361 1035.4,361 1035.4,431.5 885.6,431.5 885.6,361 738,361 
		738,431.5 589.5,431.5 589.5,361 441.9,361 441.9,431.5 366.6,431.5 366.6,361 293.4,361 293.4,431.5 219.1,431.5 219.1,361 
		143.8,361 143.8,431.5 69.5,431.5 	"/>
	<text transform="matrix(1 0 0 1 166.3711 403.769)" class="st24 st14">1980</text>
	<text transform="matrix(1 0 0 1 310.3711 403.769)" class="st24 st14">1990</text>
	<text transform="matrix(1 0 0 1 452.3711 403.769)" class="st24 st14">2000</text>
	<text transform="matrix(1 0 0 1 599.3711 403.769)" class="st24 st14">2005</text>
	<text transform="matrix(1 0 0 1 747.3711 403.769)" class="st24 st14">2010</text>
	<text transform="matrix(1 0 0 1 898.3711 403.769)" class="st24 st14">2015</text>
	<text transform="matrix(1 0 0 1 979.3711 403.769)" class="st24 st14">now</text>
	<text transform="matrix(1 0 0 1 101.0269 398.3896)" class="st24 st14">…</text>
	<text transform="matrix(1 0 0 1 1141.0269 397.3896)" class="st24 st14">…</text>
</g>
</svg>
